<svg width="40" height="40" viewBox="0 0 40 40" fill="none" xmlns="http://www.w3.org/2000/svg">
<path d="M0 4C0 1.79086 1.79086 0 4 0H36C38.2091 0 40 1.79086 40 4V36C40 38.2091 38.2091 40 36 40H4C1.79086 40 0 38.2091 0 36V4Z" fill="white"/>
<path d="M1.37694 6H38.6231C38.9882 6 39.3385 6.14254 39.5967 6.39627C39.8549 6.64999 40 6.99412 40 7.35294V31.7059C40 32.0647 39.8549 32.4088 39.5967 32.6626C39.3385 32.9163 38.9882 33.0588 38.6231 33.0588H1.37694C1.01176 33.0588 0.661524 32.9163 0.403297 32.6626C0.14507 32.4088 0 32.0647 0 31.7059V7.35294C0 6.99412 0.14507 6.64999 0.403297 6.39627C0.661524 6.14254 1.01176 6 1.37694 6Z" fill="white"/>
<path d="M3.56201 29.4796V24.8135H5.0274C6.09252 24.8135 6.77773 25.2068 6.77773 26.02C6.77773 26.48 6.56064 26.7999 6.25535 26.9866C6.69631 27.1865 6.95411 27.5732 6.95411 28.0998C6.95411 29.0397 6.25535 29.4796 5.16987 29.4796L3.56201 29.4796ZM4.50501 26.7532H5.2038C5.63119 26.7532 5.81438 26.5466 5.81438 26.1667C5.81438 25.76 5.48194 25.6267 5.03418 25.6267H4.50501V26.7532ZM4.50501 28.6664H5.08845C5.65833 28.6664 5.99076 28.5264 5.99076 28.0865C5.99076 27.6532 5.70583 27.4732 5.16987 27.4732H4.50501V28.6664ZM8.78285 29.5596C7.8534 29.5596 7.38528 29.113 7.38528 28.5131C7.38528 27.8531 7.93482 27.4665 8.74892 27.4598C8.95122 27.4635 9.153 27.4813 9.35271 27.5132V27.3532C9.35271 26.9466 9.11526 26.7532 8.66072 26.7532C8.35452 26.7495 8.05045 26.8038 7.7652 26.9132L7.5956 26.1933C7.88732 26.0733 8.35543 25.9933 8.76927 25.9933C9.76655 25.9933 10.2618 26.5133 10.2618 27.4132V29.2663C9.98364 29.4063 9.46126 29.5596 8.78285 29.5596ZM9.35271 28.8064V28.0931C9.19454 28.0586 9.03307 28.0407 8.87104 28.0398C8.55896 28.0398 8.31473 28.1598 8.31473 28.4731C8.31473 28.7531 8.51825 28.8997 8.87782 28.8997C9.04132 28.9049 9.20384 28.873 9.35271 28.8064ZM10.9209 29.4796V26.2866C11.4085 26.0942 11.9288 25.9947 12.4542 25.9933C13.4446 25.9933 14.0145 26.4733 14.0145 27.3598V29.4796H13.0783V27.4265C13.0783 26.9666 12.8612 26.7533 12.4474 26.7533C12.2419 26.7504 12.0382 26.7914 11.8504 26.8733V29.4796L10.9209 29.4796ZM17.2863 26.1933L17.1099 26.9199C16.8675 26.8167 16.6073 26.7602 16.3433 26.7532C15.7938 26.7532 15.4953 27.1332 15.4953 27.7598C15.4953 28.4464 15.8073 28.7997 16.3908 28.7997C16.6512 28.7927 16.9074 28.7337 17.1438 28.6264L17.2931 29.3663C16.9859 29.5006 16.6523 29.5666 16.3161 29.5596C15.19 29.5596 14.5387 28.873 14.5387 27.7865C14.5387 26.7066 15.1832 25.9933 16.2619 25.9933C16.6136 25.9916 16.962 26.0597 17.2863 26.1933ZM19.3088 29.5596C18.2641 29.5596 17.6128 28.8464 17.6128 27.7731C17.6128 26.7066 18.2641 25.9933 19.3088 25.9933C20.3604 25.9933 20.9981 26.7066 20.9981 27.7731C20.9981 28.8464 20.3604 29.5596 19.3088 29.5596ZM19.3088 28.7997C19.7905 28.7997 20.0415 28.4064 20.0415 27.7732C20.0415 27.1465 19.7905 26.7532 19.3088 26.7532C18.8339 26.7532 18.5694 27.1465 18.5694 27.7732C18.5693 28.4064 18.8339 28.7997 19.3088 28.7997ZM21.5399 29.4796V26.2866C22.0274 26.0942 22.5477 25.9947 23.0731 25.9933C24.0636 25.9933 24.6335 26.4733 24.6335 27.3598V29.4796H23.6972V27.4265C23.6972 26.9666 23.4801 26.7533 23.0663 26.7533C22.8608 26.7504 22.6571 26.7914 22.4693 26.8733V29.4796L21.5399 29.4796ZM26.7449 29.5596C25.9376 29.5596 25.5237 29.1263 25.5237 28.2464V26.8066H25.0624V26.0733H25.5237V25.3334L26.4599 25.2867V26.0733H27.213V26.8066H26.4599V28.2331C26.4599 28.6197 26.6228 28.7997 26.928 28.7997C27.049 28.7994 27.1696 28.786 27.2876 28.7597L27.3351 29.4996C27.1413 29.5418 26.9433 29.5619 26.7449 29.5596ZM29.108 29.5596C28.1785 29.5596 27.7104 29.113 27.7104 28.5131C27.7104 27.8531 28.2599 27.4665 29.074 27.4598C29.2763 27.4635 29.4781 27.4813 29.6778 27.5132V27.3532C29.6778 26.9466 29.4404 26.7532 28.9858 26.7532C28.6796 26.7495 28.3756 26.8038 28.0903 26.9132L27.9207 26.1933C28.2124 26.0733 28.6805 25.9933 29.0944 25.9933C30.0917 25.9933 30.5869 26.5133 30.5869 27.4132V29.2663C30.3088 29.4063 29.7864 29.5596 29.108 29.5596ZM29.6778 28.8064V28.0931C29.5196 28.0586 29.3582 28.0407 29.1961 28.0398C28.8841 28.0398 28.6398 28.1598 28.6398 28.4731C28.6398 28.7531 28.8434 28.8997 29.2029 28.8997C29.3664 28.9049 29.529 28.873 29.6778 28.8064ZM33.79 26.1933L33.6137 26.9199C33.3713 26.8167 33.1111 26.7602 32.847 26.7532C32.2975 26.7532 31.999 27.1332 31.999 27.7598C31.999 28.4464 32.3111 28.7997 32.8945 28.7997C33.1549 28.7927 33.4111 28.7337 33.6476 28.6264L33.7968 29.3663C33.4897 29.5006 33.1561 29.5666 32.8199 29.5596C31.6937 29.5596 31.0424 28.873 31.0424 27.7865C31.0424 26.7066 31.6869 25.9933 32.7656 25.9933C33.1173 25.9916 33.4657 26.0597 33.79 26.1933ZM35.8484 29.5596C35.0411 29.5596 34.6273 29.1263 34.6273 28.2464V26.8066H34.1659V26.0733H34.6273V25.3334L35.5635 25.2867V26.0733H36.3165V26.8066H35.5635V28.2331C35.5635 28.6197 35.7263 28.7997 36.0316 28.7997C36.1526 28.7994 36.2732 28.786 36.3912 28.7597L36.4387 29.4996C36.2449 29.5418 36.0469 29.5619 35.8484 29.5596Z" fill="#1E3764"/>
<path d="M10.0923 22.4804C15.0463 22.4804 17.5233 19.2353 20.0003 15.9902H3.56201V22.4804H10.0923Z" fill="url(#paint0_linear_7481_23953)"/>
<path d="M29.908 9.5C24.954 9.5 22.477 12.7451 20 15.9902H36.4383V9.5H29.908Z" fill="url(#paint1_linear_7481_23953)"/>
<defs>
<linearGradient id="paint0_linear_7481_23953" x1="6.88696" y1="19.535" x2="18.8603" y2="15.0088" gradientUnits="userSpaceOnUse">
<stop stop-color="#005AB9"/>
<stop offset="1" stop-color="#1E3764"/>
</linearGradient>
<linearGradient id="paint1_linear_7481_23953" x1="20.9953" y1="16.5531" x2="33.7162" y2="12.136" gradientUnits="userSpaceOnUse">
<stop stop-color="#FBA900"/>
<stop offset="1" stop-color="#FFD800"/>
</linearGradient>
</defs>
</svg>
