<svg width="40" height="40" viewBox="0 0 40 40" fill="none" xmlns="http://www.w3.org/2000/svg">
<path d="M0 4C0 1.79086 1.79086 0 4 0H36C38.2091 0 40 1.79086 40 4V36C40 38.2091 38.2091 40 36 40H4C1.79086 40 0 38.2091 0 36V4Z" fill="#41B6E6"/>
<path d="M28.5548 18.1298H26.7207L26.687 17.9782C29.22 17.2334 30.2402 15.6932 30.2402 13.909C30.2402 11.6196 28.5604 10.0029 25.7888 10H19.819L17.8122 13.5654H22.7295C24.1188 13.5654 25.3426 13.9249 25.3426 15.5575C25.3426 17.5048 23.5996 18.1399 21.8174 18.1399H15.2371L13.1966 21.7674H19.551C21.7627 21.7674 22.3282 22.7533 22.3282 23.9096C22.3282 25.382 21.4104 26.6854 18.9419 26.6854H10.4264L8 31H20.0435C24.8893 31 27.3269 28.689 27.3269 25.5595C27.3269 23.4447 26.2141 22.3636 24.6339 21.9161L24.6731 21.753H32V21.4094C32 19.4592 30.9335 18.1284 28.5548 18.1312V18.1298Z" fill="white"/>
</svg>
