<svg width="40" height="40" viewBox="0 0 40 40" fill="none" xmlns="http://www.w3.org/2000/svg">
<path d="M0 4C0 1.79086 1.79086 0 4 0H36C38.2091 0 40 1.79086 40 4V36C40 38.2091 38.2091 40 36 40H4C1.79086 40 0 38.2091 0 36V4Z" fill="#F6F7F7"/>
<path d="M26.0336 18.2784C24.8018 18.2678 24.2259 18.9744 24.2259 18.9744C23.8527 19.3729 24.0926 19.9041 24.4605 19.9467C24.9885 20.0051 24.9831 19.5642 25.7937 19.3675C26.5029 19.1976 26.5349 19.851 26.5349 19.851C23.5061 19.7767 23.65 22.3109 24.6792 22.8475C25.6657 23.3628 26.5935 22.7147 26.5935 22.7147C26.5935 22.7147 26.6256 23.0653 27.1161 23.0653C27.676 23.0653 27.676 22.5075 27.676 22.5075V20.0423C27.6333 18.2359 26.0336 18.2784 26.0336 18.2784ZM25.7937 21.8487C25.7937 21.8487 24.9991 22.008 25.0098 21.4449C25.0151 20.8818 26.4549 20.9136 26.5989 20.9614C26.5989 20.9561 26.6469 21.599 25.7937 21.8487Z" fill="#204866"/>
<path d="M35.8186 22.0671L34.5814 20.2129L35.4879 19.3576C35.4879 19.3576 35.9092 18.9697 35.5626 18.5872C35.184 18.1622 34.7254 18.5819 34.7254 18.5819L33.5842 19.6391V17.5193C33.5842 17.2165 33.3389 16.9668 33.0297 16.9668C32.7257 16.9668 32.4751 17.2112 32.4751 17.5193V22.5081C32.4751 22.8109 32.7204 23.0606 33.0297 23.0606C33.3336 23.0606 33.5842 22.8162 33.5842 22.5081V21.1799L33.7922 20.9727L34.912 22.7206C34.912 22.7206 35.2746 23.3263 35.8132 22.9384C36.2185 22.6462 35.8186 22.0671 35.8186 22.0671Z" fill="#204866"/>
<path d="M31.878 20.0368C31.878 18.2357 30.3689 17.9808 29.3451 18.5545V18.5598C29.2704 18.342 29.0625 18.1826 28.8172 18.1826C28.5079 18.1826 28.252 18.4324 28.252 18.7458V22.502C28.252 22.8102 28.5026 23.0651 28.8172 23.0651C29.1265 23.0651 29.3824 22.8155 29.3824 22.502L29.3771 19.9678C29.3771 19.9678 29.5157 19.8084 29.7344 19.649C30.2623 19.2771 30.7635 19.4046 30.7635 20.0421L30.7795 22.5126C30.7795 22.8208 31.0301 23.0651 31.3341 23.0651C31.638 23.0651 31.8887 22.8155 31.8887 22.5126L31.878 20.0368Z" fill="#204866"/>
<path d="M15.6512 23.1347C15.7791 22.9222 15.8005 22.7681 15.8005 22.7681L14.526 19.4476C14.526 19.4476 14.2967 18.8047 14.8033 18.6134C15.3419 18.4116 15.5392 18.9269 15.5765 19.0332C15.6192 19.1394 16.3817 21.1689 16.3817 21.1689L17.1176 19.0385C17.1176 19.0385 17.3309 18.3744 17.9175 18.6134C18.4027 18.8101 18.1521 19.4582 18.1521 19.4582C18.1521 19.4582 17.4002 21.679 16.7657 23.2888C16.387 24.2504 16.0671 24.346 15.6992 24.4363C15.2086 24.5585 14.2754 24.4948 14.2754 23.8891C14.2754 23.4057 14.7713 23.3791 14.9953 23.3844C15.0166 23.3844 15.4752 23.4269 15.6512 23.1347Z" fill="#27BCED"/>
<path d="M12.6918 17.5561L11.5293 20.7598L10.2602 17.572C10.2602 17.572 10.0735 16.9717 9.54031 16.9717C8.92707 16.9717 8.9484 17.4552 8.9324 17.572C8.91641 17.6889 8.9324 22.5502 8.9324 22.5502C8.9324 22.5502 8.92707 23.0602 9.48699 23.0602C10.0629 23.0602 10.0362 22.5448 10.0416 22.5448C10.0469 22.5448 10.0416 19.9788 10.0416 19.9788L10.9747 22.5448C10.9747 22.5448 11.1134 23.0496 11.5453 23.039C11.9772 23.0283 12.0999 22.5448 12.0999 22.5448L12.8838 19.9841V22.5448C12.8838 22.5448 12.8838 23.0602 13.449 23.0602C13.9982 23.0602 13.9982 22.5448 13.9982 22.5448V17.5774C13.9982 17.5774 13.9982 16.9717 13.401 16.9717C12.9104 16.977 12.7237 17.4498 12.6918 17.5561C12.6864 17.5667 12.6864 17.5774 12.6864 17.5774L12.6918 17.5561Z" fill="#27BCED"/>
<path d="M36 25.0207H26.167H18.9468L18.9522 25.026C17.5231 26.6889 15.4061 27.7515 13.0332 27.7515C8.73521 27.7515 5.25313 24.2821 5.25313 20C5.25313 15.7178 8.73521 12.2485 13.0332 12.2485C15.4114 12.2485 17.5444 13.3164 18.9682 14.99H20.5306C18.9095 12.5832 16.158 11 13.0332 11C8.04199 11 4 15.0325 4 20C4 24.9675 8.04199 29 13.0332 29C15.6514 29 18.003 27.8843 19.6507 26.1151L35.2534 26.0992L36 25.0207Z" fill="#27BCED"/>
<path d="M22.9196 19.798C22.9516 19.7555 23.3249 19.4527 23.2929 18.6451C23.2342 17.0141 21.8105 17.03 21.4959 17.0247C20.9893 17.0088 20.6853 17.0141 19.7521 17.0247C18.963 17.03 18.9736 17.7419 18.9736 17.7419V23.0601H21.6239C23.0423 23.0601 23.5702 22.2844 23.5702 21.1953C23.5702 20.1009 22.9196 19.798 22.9196 19.798ZM20.1148 18.1511H21.5812C21.8745 18.1564 22.1838 18.3157 22.1838 18.7514C22.1838 19.2083 21.9171 19.3518 21.5812 19.3518H20.1148V18.1511ZM21.6825 21.9763H20.1148V20.4834H21.6825C22.0611 20.5046 22.4291 20.6959 22.4291 21.2272C22.4291 21.7744 22.0931 21.9763 21.6825 21.9763Z" fill="#204866"/>
</svg>
