<svg width="40" height="40" viewBox="0 0 40 40" fill="none" xmlns="http://www.w3.org/2000/svg">
<path d="M0 4C0 1.79086 1.79086 0 4 0H36C38.2091 0 40 1.79086 40 4V36C40 38.2091 38.2091 40 36 40H4C1.79086 40 0 38.2091 0 36V4Z" fill="black"/>
<path d="M27.9885 15.7977C27.9885 12.5996 25.3715 10 22.1563 10H12.5V13.2162H21.696C23.1531 13.2162 24.3565 14.3555 24.3855 15.7509C24.4 16.4503 24.1354 17.1102 23.6425 17.6113C23.1495 18.1125 22.4898 18.3865 21.7866 18.3865H18.2053C18.0785 18.3865 17.9734 18.4875 17.9734 18.6173V21.4765C17.9734 21.527 17.9879 21.5702 18.0169 21.6099L24.0956 29.9964H28.5431L22.4499 21.5846C25.5165 21.4296 27.9885 18.8661 27.9885 15.7941" fill="white"/>
<path d="M16.2444 14.9355H12.5V29.9995H16.2444V14.9355Z" fill="white"/>
</svg>
