<svg width="40" height="40" viewBox="0 0 40 40" fill="none" xmlns="http://www.w3.org/2000/svg">
<path d="M0 4C0 1.79086 1.79086 0 4 0H36C38.2091 0 40 1.79086 40 4V36C40 38.2091 38.2091 40 36 40H4C1.79086 40 0 38.2091 0 36V4Z" fill="#873EFF"/>
<rect width="32" height="11.3548" transform="translate(4 15)" fill="#873EFF"/>
<path d="M30.821 25.2824C30.871 25.311 30.9389 25.3324 31.0247 25.3467C31.1105 25.361 31.1962 25.3681 31.282 25.3681C31.4536 25.3681 31.5965 25.3324 31.7109 25.2609C31.8253 25.1966 31.9182 25.0822 31.9897 24.9178L32.3542 24.0708L32.44 24.7891L30.124 19.0742H31.3142L32.8367 22.9771L34.3593 19.0742H35.5494L33.0405 25.218C33.0405 25.2252 33.0369 25.2287 33.0297 25.2287C33.0297 25.2359 33.0297 25.243 33.0297 25.2502C32.9154 25.5147 32.7724 25.7291 32.6008 25.8935C32.4364 26.0579 32.247 26.1759 32.0326 26.2474C31.8253 26.3188 31.5894 26.3546 31.3249 26.3546C31.2034 26.3546 31.0819 26.3474 30.9604 26.3331C30.8388 26.3188 30.7352 26.301 30.6494 26.2795L30.821 25.2824Z" fill="white"/>
<path d="M26.8424 24.3815C26.3992 24.3815 26.0025 24.2742 25.6522 24.0598C25.302 23.8382 25.0268 23.5237 24.8266 23.1162C24.6336 22.7088 24.5371 22.2263 24.5371 21.6687C24.5371 21.1183 24.6336 20.6394 24.8266 20.232C25.0268 19.8174 25.302 19.4993 25.6522 19.2777C26.0025 19.0561 26.3992 18.9453 26.8424 18.9453C27.1998 18.9453 27.5357 19.0347 27.8503 19.2134C28.1648 19.3849 28.4221 19.628 28.6223 19.9425L28.5901 20.7681C28.4829 20.5465 28.2899 20.3535 28.0111 20.1891C27.7323 20.0247 27.45 19.9425 27.164 19.9425C26.871 19.9425 26.6101 20.0175 26.3813 20.1676C26.1597 20.3106 25.9882 20.5143 25.8667 20.7788C25.7523 21.0361 25.6951 21.3328 25.6951 21.6687C25.6951 22.1834 25.8273 22.6016 26.0918 22.9232C26.3563 23.2378 26.7137 23.395 27.164 23.395C27.4571 23.395 27.7395 23.3164 28.0111 23.1591C28.2899 23.0019 28.4829 22.8089 28.5901 22.5801L28.6115 23.4057C28.4114 23.706 28.1576 23.9454 27.8503 24.1241C27.5429 24.2957 27.2069 24.3815 26.8424 24.3815ZM28.515 24.2528V19.074H29.6194V24.2528H28.515Z" fill="white"/>
<path d="M18.8066 24.2523V17.1006H21.9375C22.4236 17.1006 22.8418 17.2007 23.192 17.4008C23.5423 17.601 23.8103 17.8726 23.9962 18.2157C24.182 18.5588 24.275 18.9341 24.275 19.3415C24.275 19.749 24.182 20.1242 23.9962 20.4674C23.8103 20.8033 23.5387 21.0714 23.1813 21.2715C22.831 21.4717 22.4164 21.5717 21.9375 21.5717H19.8789V20.4888H21.766C22.009 20.4888 22.2234 20.4423 22.4093 20.3494C22.5951 20.2493 22.7381 20.1135 22.8382 19.942C22.9454 19.7633 22.999 19.5631 22.999 19.3415C22.999 19.1128 22.9454 18.9126 22.8382 18.7411C22.7381 18.5624 22.5951 18.4266 22.4093 18.3336C22.2234 18.2407 22.009 18.1942 21.766 18.1942H20.0504V24.2523H18.8066Z" fill="white"/>
<path d="M7.64088 24.3773C8.47397 24.3773 9.14249 23.9659 9.64645 23.0197L10.7675 20.9216V22.7009C10.7675 23.7499 11.4463 24.3773 12.4954 24.3773C13.3182 24.3773 13.925 24.0173 14.5112 23.0197L17.0928 18.6589C17.6585 17.7024 17.2573 16.9824 16.0129 16.9824C15.3443 16.9824 14.9124 17.1984 14.5215 17.9286L12.7422 21.2713V18.2989C12.7422 17.4144 12.3205 16.9824 11.5389 16.9824C10.9218 16.9824 10.4281 17.2498 10.0476 17.9903L8.37112 21.2713V18.3298C8.37112 17.3835 7.98029 16.9824 7.03407 16.9824H5.10049C4.37026 16.9824 4 17.3218 4 17.9492C4 18.5766 4.39083 18.9366 5.10049 18.9366H5.89244V22.6906C5.89244 23.7499 6.6021 24.3773 7.64088 24.3773Z" fill="white"/>
</svg>
