<svg width="38" height="24" viewBox="0 0 38 24" fill="none" xmlns="http://www.w3.org/2000/svg">
<rect width="38" height="24" rx="2" fill="white"/>
<rect x="0.5" y="0.5" width="37" height="23" rx="1.5" stroke="black" stroke-opacity="0.07"/>
<g clip-path="url(#clip0_7487_27711)">
<path d="M10.384 7.01678V7.18267C12.5648 7.67102 14.4828 9.05592 14.4828 12.2507C14.4828 15.2367 12.2442 17.2218 9.50606 17.2199C6.12116 17.2181 3.30103 15.2293 3.30103 13.576C3.30103 12.0736 6.27213 10.9571 8.83691 10.8677L10.0336 10.8919V7C4.97297 6.99628 2 9.25723 2 12.3905C2 15.3765 5.39981 17.7978 9.61789 17.8015C13.836 17.8052 17.2563 15.5555 17.2563 12.4017C17.2563 9.63933 14.3504 7.22554 10.384 7.01678Z" fill="#1E1E1E"/>
<path d="M6.68799 14.0275C6.68799 15.6976 8.55565 16.6668 10.0095 16.7712V11.1123C8.28165 11.1775 6.68799 12.3742 6.68799 14.0275Z" fill="#1E1E1E"/>
<path d="M32.6131 9.69367L32.6895 9.2631C31.8172 8.8549 29.5357 9.04502 29.5767 10.5809C29.6121 11.9136 31.3363 12.3106 32.6336 11.9472L32.5888 11.4775C32.1937 11.5837 30.4658 11.7216 30.4882 10.5902C30.5161 9.17922 32.4136 9.62284 32.6112 9.68994L32.6131 9.69367Z" fill="#1E1E1E"/>
<path d="M32.8647 9.1416V9.60386L34.0316 9.60572L34.0297 12.027H34.8554V9.60572H35.9999V9.14347L32.8647 9.1416Z" fill="#1E1E1E"/>
<path d="M27.8098 11.9988L29.3382 12.0007V11.5179L27.8098 11.5161V10.8152L29.2599 10.8171V10.3325H27.8098V9.59995L29.3512 9.60181V9.11719H27.0399L27.0381 11.9988L27.8098 12.0007V11.9988Z" fill="#1E1E1E"/>
<path d="M22.7307 9.11914H21.8677V11.9896H22.7307V9.11914Z" fill="#1E1E1E"/>
<path d="M19.4446 9.1416H18.5332H17.8994V12.0121H18.6114H19.4446C20.494 12.0121 21.4017 11.4808 21.4017 10.5899C21.4017 9.70451 20.494 9.1416 19.4446 9.1416ZM19.2936 11.5293L18.7624 11.5442V9.54794L19.4278 9.58335C19.892 9.58335 20.4959 9.89836 20.4959 10.5638C20.4959 11.1136 20.0429 11.5312 19.2936 11.5293Z" fill="#1E1E1E"/>
<path d="M19.4446 12.748H18.5332H17.8994V15.6185H18.6263H19.4446C20.494 15.6185 21.4017 15.0873 21.4017 14.1963C21.4017 13.311 20.494 12.748 19.4446 12.748ZM19.2918 15.1357L18.7606 15.1507V13.1544L19.426 13.1898C19.8901 13.1898 20.494 13.5048 20.494 14.1702C20.494 14.7201 20.0411 15.1376 19.2918 15.1357Z" fill="#1E1E1E"/>
<path d="M32.0671 13.5312H31.2339V15.6655H32.0671V13.5312Z" fill="#1E1E1E"/>
<path d="M32.0671 12.5342H31.2339V13.084H32.0671V12.5342Z" fill="#1E1E1E"/>
<path d="M34.9001 15.0096V13.9881H35.6066V13.5352H34.9001V12.9854H34.0483V13.5352H33.3848V13.9881H34.0483V15.1065C34.0483 15.8614 35.0567 15.8819 35.6308 15.7477V15.2761C35.3661 15.3675 34.9001 15.2817 34.9001 15.0096Z" fill="#1E1E1E"/>
<path d="M23.8976 13.3633C22.9769 13.3633 22.3301 13.8703 22.3301 14.5096C22.3301 15.2291 23.0309 15.6708 23.8976 15.6708C24.3729 15.6708 24.7998 15.6541 25.1334 15.4975V14.9961C24.9098 15.2309 23.2434 15.5273 23.2005 14.6979H25.3385C25.3925 13.6969 24.6078 13.3633 23.8976 13.3633ZM23.2061 14.3008C23.2192 13.943 23.5137 13.792 23.907 13.792C24.2686 13.792 24.5109 13.9747 24.5463 14.2971H23.2061V14.3008Z" fill="#1E1E1E"/>
<path d="M25.6124 10.6138C25.6459 10.612 26.289 10.5598 26.289 9.87758C26.289 9.22521 25.4521 9.11523 25.0178 9.11523H23.4707V11.9969H24.3262V10.8487H24.645C24.9954 10.8431 25.111 11.1246 25.1166 11.1395L25.5714 11.9987H26.4716L25.8099 10.8207C25.8043 10.8133 25.713 10.6809 25.6105 10.6157L25.6124 10.6138ZM24.8817 10.3603H24.3207V9.58681H24.8947C25.1613 9.58681 25.426 9.71356 25.426 9.97637C25.426 10.215 25.1054 10.3603 24.8817 10.3603Z" fill="#1E1E1E"/>
<path d="M28.4829 13.4509C28.0449 13.4509 27.6852 13.5608 27.4596 13.8088V12.5264H26.6265V15.6391H27.4596V15.3689C27.674 15.6093 28.0188 15.7193 28.4774 15.7193C29.1801 15.7193 29.7486 15.2906 29.7486 14.5692C29.7486 13.8293 29.1856 13.4546 28.4829 13.4527V13.4509ZM28.1828 15.2458C27.7989 15.2458 27.4895 14.9793 27.4578 14.6438V14.5376C27.4895 14.2002 27.7989 13.9355 28.1828 13.9355C28.5873 13.9355 28.9135 14.23 28.9135 14.5916C28.9135 14.9532 28.5855 15.2477 28.1828 15.2477V15.2458Z" fill="#1E1E1E"/>
</g>
<defs>
<clipPath id="clip0_7487_27711">
<rect width="34" height="10.7996" fill="white" transform="translate(2 7)"/>
</clipPath>
</defs>
</svg>
