<svg width="38" height="24" viewBox="0 0 38 24" fill="none" xmlns="http://www.w3.org/2000/svg">
<rect width="38" height="24" rx="2" fill="white"/>
<rect x="0.5" y="0.5" width="37" height="23" rx="1.5" stroke="black" stroke-opacity="0.07"/>
<path fill-rule="evenodd" clip-rule="evenodd" d="M12.5 9.5V7.5H25.5V9.5H12.5ZM12.5 12.5V16.5H25.5V12.5H12.5ZM11 7C11 6.73478 11.1054 6.48043 11.2929 6.29289C11.4804 6.10536 11.7348 6 12 6H26C26.2652 6 26.5196 6.10536 26.7071 6.29289C26.8946 6.48043 27 6.73478 27 7V17C27 17.2652 26.8946 17.5196 26.7071 17.7071C26.5196 17.8946 26.2652 18 26 18H12C11.7348 18 11.4804 17.8946 11.2929 17.7071C11.1054 17.5196 11 17.2652 11 17V7Z" fill="#1E1E1E"/>
</svg>
